<mxfile host="Electron" agent="Mozilla/5.0 (X11; Linux x86_64) AppleWebKit/537.36 (KHTML, like Gecko) draw.io/24.7.5 Chrome/126.0.6478.183 Electron/31.3.0 Safari/537.36" version="24.7.5">
  <diagram name="Pagina-1" id="jYPu7AD6xxOMoxcDs3jr">
    <mxGraphModel dx="2813" dy="1132" grid="1" gridSize="10" guides="1" tooltips="1" connect="1" arrows="1" fold="1" page="1" pageScale="1" pageWidth="1169" pageHeight="827" math="0" shadow="0">
      <root>
        <mxCell id="0" />
        <mxCell id="1" parent="0" />
        <mxCell id="uXdwFXX3pg9mF8V6nEQ7-117" value="" style="rounded=1;whiteSpace=wrap;html=1;textShadow=0;fillColor=none;dashed=1;dashPattern=12 12;strokeWidth=2;movable=1;resizable=1;rotatable=1;deletable=1;editable=1;locked=0;connectable=1;" vertex="1" parent="1">
          <mxGeometry x="-1030" y="157" width="3140" height="720" as="geometry" />
        </mxCell>
        <mxCell id="uXdwFXX3pg9mF8V6nEQ7-10" value="System&lt;div&gt;Description&lt;/div&gt;" style="shape=step;perimeter=stepPerimeter;whiteSpace=wrap;html=1;fixedSize=1;" vertex="1" parent="1">
          <mxGeometry x="-704" y="97" width="120" height="60" as="geometry" />
        </mxCell>
        <mxCell id="uXdwFXX3pg9mF8V6nEQ7-11" value="Report&lt;div&gt;Creation&lt;/div&gt;" style="shape=step;perimeter=stepPerimeter;whiteSpace=wrap;html=1;fixedSize=1;" vertex="1" parent="1">
          <mxGeometry x="1850" y="97" width="120" height="60" as="geometry" />
        </mxCell>
        <mxCell id="uXdwFXX3pg9mF8V6nEQ7-12" value="Impact&amp;nbsp;&lt;div&gt;Assessment&lt;div&gt;and Control&lt;/div&gt;&lt;/div&gt;" style="shape=step;perimeter=stepPerimeter;whiteSpace=wrap;html=1;fixedSize=1;" vertex="1" parent="1">
          <mxGeometry x="1320" y="97" width="120" height="60" as="geometry" />
        </mxCell>
        <mxCell id="uXdwFXX3pg9mF8V6nEQ7-13" value="Threat&lt;div&gt;Elicitation&lt;/div&gt;" style="shape=step;perimeter=stepPerimeter;whiteSpace=wrap;html=1;fixedSize=1;" vertex="1" parent="1">
          <mxGeometry x="190" y="97" width="120" height="60" as="geometry" />
        </mxCell>
        <mxCell id="uXdwFXX3pg9mF8V6nEQ7-294" style="edgeStyle=orthogonalEdgeStyle;rounded=0;orthogonalLoop=1;jettySize=auto;html=1;exitX=1;exitY=0.5;exitDx=0;exitDy=0;exitPerimeter=0;" edge="1" parent="1" source="uXdwFXX3pg9mF8V6nEQ7-154" target="uXdwFXX3pg9mF8V6nEQ7-293">
          <mxGeometry relative="1" as="geometry" />
        </mxCell>
        <mxCell id="uXdwFXX3pg9mF8V6nEQ7-154" value="&lt;font style=&quot;font-size: 11px;&quot;&gt;At Least&lt;/font&gt;&lt;div style=&quot;font-size: 11px;&quot;&gt;&lt;font style=&quot;font-size: 11px;&quot;&gt;One&lt;/font&gt;&lt;/div&gt;" style="shape=xor;whiteSpace=wrap;html=1;align=center;" vertex="1" parent="1">
          <mxGeometry x="839.9999999999999" y="495" width="80" height="60" as="geometry" />
        </mxCell>
        <mxCell id="uXdwFXX3pg9mF8V6nEQ7-255" value="" style="group" vertex="1" connectable="0" parent="1">
          <mxGeometry x="-225.34000000000003" y="210" width="1315.3400000000001" height="630" as="geometry" />
        </mxCell>
        <mxCell id="uXdwFXX3pg9mF8V6nEQ7-63" style="edgeStyle=orthogonalEdgeStyle;rounded=0;orthogonalLoop=1;jettySize=auto;html=1;exitX=1;exitY=0.5;exitDx=0;exitDy=0;" edge="1" parent="uXdwFXX3pg9mF8V6nEQ7-255" source="uXdwFXX3pg9mF8V6nEQ7-50" target="uXdwFXX3pg9mF8V6nEQ7-62">
          <mxGeometry relative="1" as="geometry" />
        </mxCell>
        <mxCell id="uXdwFXX3pg9mF8V6nEQ7-50" value="&lt;span style=&quot;background-color: rgb(117, 169, 156);&quot;&gt;Zero-shot Prompt&amp;nbsp; With LINDDUN Classification&lt;/span&gt;" style="rounded=1;whiteSpace=wrap;html=1;arcSize=9;" vertex="1" parent="uXdwFXX3pg9mF8V6nEQ7-255">
          <mxGeometry x="-8.526512829121202e-14" width="120" height="60" as="geometry" />
        </mxCell>
        <mxCell id="uXdwFXX3pg9mF8V6nEQ7-211" style="edgeStyle=orthogonalEdgeStyle;rounded=0;orthogonalLoop=1;jettySize=auto;html=1;exitX=1;exitY=0.5;exitDx=0;exitDy=0;entryX=0;entryY=0.5;entryDx=0;entryDy=0;dashed=1;" edge="1" parent="uXdwFXX3pg9mF8V6nEQ7-255" source="uXdwFXX3pg9mF8V6nEQ7-62" target="uXdwFXX3pg9mF8V6nEQ7-210">
          <mxGeometry relative="1" as="geometry" />
        </mxCell>
        <mxCell id="uXdwFXX3pg9mF8V6nEQ7-62" value="Simple Threat&lt;div&gt;Elicitation&lt;/div&gt;" style="rounded=1;whiteSpace=wrap;html=1;arcSize=9;" vertex="1" parent="uXdwFXX3pg9mF8V6nEQ7-255">
          <mxGeometry x="170.33999999999995" width="120" height="60" as="geometry" />
        </mxCell>
        <mxCell id="uXdwFXX3pg9mF8V6nEQ7-206" value="" style="group" vertex="1" connectable="0" parent="uXdwFXX3pg9mF8V6nEQ7-255">
          <mxGeometry y="90" width="1315.3400000000001" height="530" as="geometry" />
        </mxCell>
        <mxCell id="uXdwFXX3pg9mF8V6nEQ7-184" value="LINDDUN Go Simulation" style="rounded=1;whiteSpace=wrap;html=1;fillColor=none;labelPosition=center;verticalLabelPosition=top;align=center;verticalAlign=bottom;" vertex="1" parent="uXdwFXX3pg9mF8V6nEQ7-206">
          <mxGeometry width="750" height="340" as="geometry" />
        </mxCell>
        <mxCell id="uXdwFXX3pg9mF8V6nEQ7-201" style="edgeStyle=orthogonalEdgeStyle;rounded=0;orthogonalLoop=1;jettySize=auto;html=1;exitX=1;exitY=0.5;exitDx=0;exitDy=0;entryX=0.5;entryY=1;entryDx=0;entryDy=0;" edge="1" parent="uXdwFXX3pg9mF8V6nEQ7-206" source="uXdwFXX3pg9mF8V6nEQ7-184" target="uXdwFXX3pg9mF8V6nEQ7-184">
          <mxGeometry relative="1" as="geometry" />
        </mxCell>
        <mxCell id="uXdwFXX3pg9mF8V6nEQ7-202" value="Repeat For # Of Cards&amp;nbsp;" style="edgeLabel;html=1;align=center;verticalAlign=middle;resizable=0;points=[];" vertex="1" connectable="0" parent="uXdwFXX3pg9mF8V6nEQ7-201">
          <mxGeometry x="-0.6431" relative="1" as="geometry">
            <mxPoint as="offset" />
          </mxGeometry>
        </mxCell>
        <mxCell id="uXdwFXX3pg9mF8V6nEQ7-203" value="" style="group" vertex="1" connectable="0" parent="uXdwFXX3pg9mF8V6nEQ7-206">
          <mxGeometry x="25" y="42" width="700" height="256" as="geometry" />
        </mxCell>
        <mxCell id="uXdwFXX3pg9mF8V6nEQ7-59" style="edgeStyle=orthogonalEdgeStyle;rounded=0;orthogonalLoop=1;jettySize=auto;html=1;exitX=0.5;exitY=1;exitDx=0;exitDy=0;entryX=0;entryY=0.5;entryDx=0;entryDy=0;" edge="1" parent="uXdwFXX3pg9mF8V6nEQ7-203" source="uXdwFXX3pg9mF8V6nEQ7-53" target="uXdwFXX3pg9mF8V6nEQ7-58">
          <mxGeometry relative="1" as="geometry" />
        </mxCell>
        <mxCell id="uXdwFXX3pg9mF8V6nEQ7-64" value="No" style="edgeLabel;html=1;align=center;verticalAlign=middle;resizable=0;points=[];" vertex="1" connectable="0" parent="uXdwFXX3pg9mF8V6nEQ7-59">
          <mxGeometry x="-0.4111" y="-1" relative="1" as="geometry">
            <mxPoint x="-1" y="-27" as="offset" />
          </mxGeometry>
        </mxCell>
        <mxCell id="uXdwFXX3pg9mF8V6nEQ7-61" style="edgeStyle=orthogonalEdgeStyle;rounded=0;orthogonalLoop=1;jettySize=auto;html=1;exitX=0.5;exitY=0;exitDx=0;exitDy=0;entryX=0;entryY=0.5;entryDx=0;entryDy=0;" edge="1" parent="uXdwFXX3pg9mF8V6nEQ7-203" source="uXdwFXX3pg9mF8V6nEQ7-53" target="uXdwFXX3pg9mF8V6nEQ7-60">
          <mxGeometry relative="1" as="geometry" />
        </mxCell>
        <mxCell id="uXdwFXX3pg9mF8V6nEQ7-65" value="Yes" style="edgeLabel;html=1;align=center;verticalAlign=middle;resizable=0;points=[];" vertex="1" connectable="0" parent="uXdwFXX3pg9mF8V6nEQ7-61">
          <mxGeometry x="0.0718" y="-2" relative="1" as="geometry">
            <mxPoint x="-5" y="79" as="offset" />
          </mxGeometry>
        </mxCell>
        <mxCell id="uXdwFXX3pg9mF8V6nEQ7-53" value="Multi-Agent" style="rhombus;whiteSpace=wrap;html=1;" vertex="1" parent="uXdwFXX3pg9mF8V6nEQ7-203">
          <mxGeometry x="145" y="116" width="80" height="80" as="geometry" />
        </mxCell>
        <mxCell id="uXdwFXX3pg9mF8V6nEQ7-188" style="edgeStyle=orthogonalEdgeStyle;rounded=0;orthogonalLoop=1;jettySize=auto;html=1;exitX=1;exitY=0.5;exitDx=0;exitDy=0;" edge="1" parent="uXdwFXX3pg9mF8V6nEQ7-203" target="uXdwFXX3pg9mF8V6nEQ7-187">
          <mxGeometry relative="1" as="geometry">
            <mxPoint x="390" y="225.99999999999955" as="sourcePoint" />
          </mxGeometry>
        </mxCell>
        <mxCell id="uXdwFXX3pg9mF8V6nEQ7-58" value="&lt;span style=&quot;background-color: rgb(117, 169, 156);&quot;&gt;Obtain Answers to Card Questions&lt;/span&gt;" style="rounded=1;whiteSpace=wrap;html=1;arcSize=9;" vertex="1" parent="uXdwFXX3pg9mF8V6nEQ7-203">
          <mxGeometry x="270" y="196" width="120" height="60" as="geometry" />
        </mxCell>
        <mxCell id="uXdwFXX3pg9mF8V6nEQ7-192" style="edgeStyle=orthogonalEdgeStyle;rounded=0;orthogonalLoop=1;jettySize=auto;html=1;exitX=1;exitY=0.5;exitDx=0;exitDy=0;entryX=0;entryY=0.5;entryDx=0;entryDy=0;" edge="1" parent="uXdwFXX3pg9mF8V6nEQ7-203" source="uXdwFXX3pg9mF8V6nEQ7-60" target="uXdwFXX3pg9mF8V6nEQ7-189">
          <mxGeometry relative="1" as="geometry" />
        </mxCell>
        <mxCell id="uXdwFXX3pg9mF8V6nEQ7-60" value="Spawn Multiple LLM Agents" style="rounded=1;whiteSpace=wrap;html=1;arcSize=9;" vertex="1" parent="uXdwFXX3pg9mF8V6nEQ7-203">
          <mxGeometry x="270" width="120" height="60" as="geometry" />
        </mxCell>
        <mxCell id="uXdwFXX3pg9mF8V6nEQ7-198" style="edgeStyle=orthogonalEdgeStyle;rounded=0;orthogonalLoop=1;jettySize=auto;html=1;exitX=1;exitY=0.5;exitDx=0;exitDy=0;entryX=0;entryY=0.5;entryDx=0;entryDy=0;" edge="1" parent="uXdwFXX3pg9mF8V6nEQ7-203" source="uXdwFXX3pg9mF8V6nEQ7-186" target="uXdwFXX3pg9mF8V6nEQ7-53">
          <mxGeometry relative="1" as="geometry" />
        </mxCell>
        <mxCell id="uXdwFXX3pg9mF8V6nEQ7-186" value="Card Is &quot;Drawn&quot;" style="rounded=1;whiteSpace=wrap;html=1;" vertex="1" parent="uXdwFXX3pg9mF8V6nEQ7-203">
          <mxGeometry y="126" width="120" height="60" as="geometry" />
        </mxCell>
        <mxCell id="uXdwFXX3pg9mF8V6nEQ7-187" value="Threat Elicitation" style="rounded=1;whiteSpace=wrap;html=1;arcSize=9;" vertex="1" parent="uXdwFXX3pg9mF8V6nEQ7-203">
          <mxGeometry x="430" y="196" width="120" height="60" as="geometry" />
        </mxCell>
        <mxCell id="uXdwFXX3pg9mF8V6nEQ7-193" style="edgeStyle=orthogonalEdgeStyle;rounded=0;orthogonalLoop=1;jettySize=auto;html=1;exitX=0.5;exitY=1;exitDx=0;exitDy=0;entryX=0.5;entryY=0;entryDx=0;entryDy=0;" edge="1" parent="uXdwFXX3pg9mF8V6nEQ7-203" source="uXdwFXX3pg9mF8V6nEQ7-189" target="uXdwFXX3pg9mF8V6nEQ7-190">
          <mxGeometry relative="1" as="geometry" />
        </mxCell>
        <mxCell id="uXdwFXX3pg9mF8V6nEQ7-189" value="&lt;span style=&quot;background-color: rgb(117, 169, 156);&quot;&gt;Obtain Answers to Card Questions&amp;nbsp;&lt;/span&gt;&lt;div&gt;&lt;span style=&quot;background-color: rgb(117, 169, 156);&quot;&gt;From Each Agent&lt;/span&gt;&lt;/div&gt;" style="rounded=1;whiteSpace=wrap;html=1;arcSize=9;" vertex="1" parent="uXdwFXX3pg9mF8V6nEQ7-203">
          <mxGeometry x="430" width="120" height="60" as="geometry" />
        </mxCell>
        <mxCell id="uXdwFXX3pg9mF8V6nEQ7-194" style="edgeStyle=orthogonalEdgeStyle;rounded=0;orthogonalLoop=1;jettySize=auto;html=1;exitX=0;exitY=0.5;exitDx=0;exitDy=0;entryX=1;entryY=0.5;entryDx=0;entryDy=0;" edge="1" parent="uXdwFXX3pg9mF8V6nEQ7-203" source="uXdwFXX3pg9mF8V6nEQ7-190" target="uXdwFXX3pg9mF8V6nEQ7-191">
          <mxGeometry relative="1" as="geometry" />
        </mxCell>
        <mxCell id="uXdwFXX3pg9mF8V6nEQ7-190" value="Assemble a&amp;nbsp;&lt;div&gt;&quot;Previous Analysis&quot;&amp;nbsp; From The Answers&lt;/div&gt;" style="rounded=1;whiteSpace=wrap;html=1;arcSize=9;" vertex="1" parent="uXdwFXX3pg9mF8V6nEQ7-203">
          <mxGeometry x="430" y="90" width="120" height="60" as="geometry" />
        </mxCell>
        <mxCell id="uXdwFXX3pg9mF8V6nEQ7-195" style="edgeStyle=orthogonalEdgeStyle;rounded=0;orthogonalLoop=1;jettySize=auto;html=1;exitX=0.5;exitY=0;exitDx=0;exitDy=0;entryX=0.5;entryY=1;entryDx=0;entryDy=0;" edge="1" parent="uXdwFXX3pg9mF8V6nEQ7-203" source="uXdwFXX3pg9mF8V6nEQ7-191" target="uXdwFXX3pg9mF8V6nEQ7-60">
          <mxGeometry relative="1" as="geometry" />
        </mxCell>
        <mxCell id="uXdwFXX3pg9mF8V6nEQ7-191" value="Include The Analysis In The Prompt" style="rounded=1;whiteSpace=wrap;html=1;arcSize=9;" vertex="1" parent="uXdwFXX3pg9mF8V6nEQ7-203">
          <mxGeometry x="270" y="90" width="120" height="60" as="geometry" />
        </mxCell>
        <mxCell id="uXdwFXX3pg9mF8V6nEQ7-196" value="&lt;font style=&quot;font-size: 11px;&quot;&gt;Repeat For # Of Rounds&lt;/font&gt;" style="text;html=1;align=center;verticalAlign=middle;resizable=0;points=[];autosize=1;strokeColor=none;fillColor=none;" vertex="1" parent="uXdwFXX3pg9mF8V6nEQ7-203">
          <mxGeometry x="340" y="60" width="140" height="30" as="geometry" />
        </mxCell>
        <mxCell id="uXdwFXX3pg9mF8V6nEQ7-199" value="&lt;span style=&quot;background-color: rgb(117, 169, 156);&quot;&gt;&amp;nbsp;Judge Produces Final Verdict&lt;/span&gt;" style="rounded=1;whiteSpace=wrap;html=1;arcSize=9;" vertex="1" parent="uXdwFXX3pg9mF8V6nEQ7-203">
          <mxGeometry x="580" y="45" width="120" height="60" as="geometry" />
        </mxCell>
        <mxCell id="uXdwFXX3pg9mF8V6nEQ7-200" value="" style="endArrow=classic;html=1;rounded=0;entryX=0;entryY=0.5;entryDx=0;entryDy=0;exitX=1.003;exitY=0.495;exitDx=0;exitDy=0;exitPerimeter=0;" edge="1" parent="uXdwFXX3pg9mF8V6nEQ7-203" source="uXdwFXX3pg9mF8V6nEQ7-196" target="uXdwFXX3pg9mF8V6nEQ7-199">
          <mxGeometry width="50" height="50" relative="1" as="geometry">
            <mxPoint x="370" y="50" as="sourcePoint" />
            <mxPoint x="420" as="targetPoint" />
          </mxGeometry>
        </mxCell>
        <mxCell id="uXdwFXX3pg9mF8V6nEQ7-210" value="Threat Model Output" style="shape=document;whiteSpace=wrap;html=1;boundedLbl=1;" vertex="1" parent="uXdwFXX3pg9mF8V6nEQ7-255">
          <mxGeometry x="855" width="120" height="60" as="geometry" />
        </mxCell>
        <mxCell id="uXdwFXX3pg9mF8V6nEQ7-212" value="LINDDUN Go Output" style="shape=document;whiteSpace=wrap;html=1;boundedLbl=1;" vertex="1" parent="uXdwFXX3pg9mF8V6nEQ7-255">
          <mxGeometry x="855" y="230" width="120" height="60" as="geometry" />
        </mxCell>
        <mxCell id="uXdwFXX3pg9mF8V6nEQ7-213" style="edgeStyle=orthogonalEdgeStyle;rounded=0;orthogonalLoop=1;jettySize=auto;html=1;exitX=1;exitY=0.5;exitDx=0;exitDy=0;dashed=1;" edge="1" parent="uXdwFXX3pg9mF8V6nEQ7-255" source="uXdwFXX3pg9mF8V6nEQ7-184" target="uXdwFXX3pg9mF8V6nEQ7-212">
          <mxGeometry relative="1" as="geometry" />
        </mxCell>
        <mxCell id="uXdwFXX3pg9mF8V6nEQ7-232" value="" style="group" vertex="1" connectable="0" parent="uXdwFXX3pg9mF8V6nEQ7-255">
          <mxGeometry y="490" width="975" height="140" as="geometry" />
        </mxCell>
        <mxCell id="uXdwFXX3pg9mF8V6nEQ7-227" style="edgeStyle=orthogonalEdgeStyle;rounded=0;orthogonalLoop=1;jettySize=auto;html=1;exitX=1;exitY=0.5;exitDx=0;exitDy=0;" edge="1" parent="uXdwFXX3pg9mF8V6nEQ7-232" source="uXdwFXX3pg9mF8V6nEQ7-52" target="uXdwFXX3pg9mF8V6nEQ7-218">
          <mxGeometry relative="1" as="geometry" />
        </mxCell>
        <mxCell id="uXdwFXX3pg9mF8V6nEQ7-52" value="Choosing Relevant Threat Categories" style="rounded=1;whiteSpace=wrap;html=1;arcSize=9;" vertex="1" parent="uXdwFXX3pg9mF8V6nEQ7-232">
          <mxGeometry x="210" y="40" width="120" height="60" as="geometry" />
        </mxCell>
        <mxCell id="uXdwFXX3pg9mF8V6nEQ7-231" style="edgeStyle=orthogonalEdgeStyle;rounded=0;orthogonalLoop=1;jettySize=auto;html=1;exitX=1;exitY=0.5;exitDx=0;exitDy=0;dashed=1;" edge="1" parent="uXdwFXX3pg9mF8V6nEQ7-232" source="uXdwFXX3pg9mF8V6nEQ7-214" target="uXdwFXX3pg9mF8V6nEQ7-230">
          <mxGeometry relative="1" as="geometry" />
        </mxCell>
        <mxCell id="uXdwFXX3pg9mF8V6nEQ7-214" value="LINDDUN Pro Process" style="rounded=1;whiteSpace=wrap;html=1;fillColor=none;labelPosition=center;verticalLabelPosition=top;align=center;verticalAlign=bottom;" vertex="1" parent="uXdwFXX3pg9mF8V6nEQ7-232">
          <mxGeometry width="750" height="140" as="geometry" />
        </mxCell>
        <mxCell id="uXdwFXX3pg9mF8V6nEQ7-217" value="&lt;span style=&quot;background-color: rgb(117, 169, 156);&quot;&gt;Tree-Based Threat Generation&lt;/span&gt;" style="rounded=1;whiteSpace=wrap;html=1;arcSize=9;" vertex="1" parent="uXdwFXX3pg9mF8V6nEQ7-232">
          <mxGeometry x="590" y="40" width="120" height="60" as="geometry" />
        </mxCell>
        <mxCell id="uXdwFXX3pg9mF8V6nEQ7-228" style="edgeStyle=orthogonalEdgeStyle;rounded=0;orthogonalLoop=1;jettySize=auto;html=1;exitX=1;exitY=0.5;exitDx=0;exitDy=0;" edge="1" parent="uXdwFXX3pg9mF8V6nEQ7-232" source="uXdwFXX3pg9mF8V6nEQ7-218" target="uXdwFXX3pg9mF8V6nEQ7-217">
          <mxGeometry relative="1" as="geometry" />
        </mxCell>
        <mxCell id="uXdwFXX3pg9mF8V6nEQ7-218" value="Data Flow&lt;div&gt;Description&lt;/div&gt;" style="rounded=1;whiteSpace=wrap;html=1;arcSize=9;" vertex="1" parent="uXdwFXX3pg9mF8V6nEQ7-232">
          <mxGeometry x="395" y="40" width="120" height="60" as="geometry" />
        </mxCell>
        <mxCell id="uXdwFXX3pg9mF8V6nEQ7-220" style="edgeStyle=orthogonalEdgeStyle;rounded=0;orthogonalLoop=1;jettySize=auto;html=1;exitX=1;exitY=0.5;exitDx=0;exitDy=0;entryX=0;entryY=0.5;entryDx=0;entryDy=0;" edge="1" parent="uXdwFXX3pg9mF8V6nEQ7-232" source="uXdwFXX3pg9mF8V6nEQ7-219" target="uXdwFXX3pg9mF8V6nEQ7-52">
          <mxGeometry relative="1" as="geometry" />
        </mxCell>
        <mxCell id="uXdwFXX3pg9mF8V6nEQ7-219" value="DFD Edge Selection" style="rounded=1;whiteSpace=wrap;html=1;arcSize=9;" vertex="1" parent="uXdwFXX3pg9mF8V6nEQ7-232">
          <mxGeometry x="20" y="40" width="120" height="60" as="geometry" />
        </mxCell>
        <mxCell id="uXdwFXX3pg9mF8V6nEQ7-229" style="edgeStyle=orthogonalEdgeStyle;rounded=0;orthogonalLoop=1;jettySize=auto;html=1;exitX=1;exitY=0.5;exitDx=0;exitDy=0;entryX=0.5;entryY=1;entryDx=0;entryDy=0;" edge="1" parent="uXdwFXX3pg9mF8V6nEQ7-232" source="uXdwFXX3pg9mF8V6nEQ7-214" target="uXdwFXX3pg9mF8V6nEQ7-214">
          <mxGeometry relative="1" as="geometry" />
        </mxCell>
        <mxCell id="uXdwFXX3pg9mF8V6nEQ7-78" value="&lt;span style=&quot;background-color: rgb(255, 255, 255);&quot;&gt;Repeat Until Satisfied&lt;/span&gt;" style="text;html=1;align=center;verticalAlign=middle;resizable=0;points=[];autosize=1;strokeColor=none;fillColor=none;" vertex="1" parent="uXdwFXX3pg9mF8V6nEQ7-232">
          <mxGeometry x="710" y="100" width="140" height="30" as="geometry" />
        </mxCell>
        <mxCell id="uXdwFXX3pg9mF8V6nEQ7-230" value="LINDDUN Pro Output" style="shape=document;whiteSpace=wrap;html=1;boundedLbl=1;" vertex="1" parent="uXdwFXX3pg9mF8V6nEQ7-232">
          <mxGeometry x="855" y="40" width="120" height="60" as="geometry" />
        </mxCell>
        <mxCell id="uXdwFXX3pg9mF8V6nEQ7-256" value="" style="group" vertex="1" connectable="0" parent="1">
          <mxGeometry x="-975.34" y="365" width="995.34" height="320" as="geometry" />
        </mxCell>
        <mxCell id="uXdwFXX3pg9mF8V6nEQ7-19" value="&lt;font style=&quot;font-size: 11px;&quot;&gt;At Least&lt;/font&gt;&lt;div style=&quot;font-size: 11px;&quot;&gt;&lt;font style=&quot;font-size: 11px;&quot;&gt;One&lt;/font&gt;&lt;/div&gt;" style="shape=xor;whiteSpace=wrap;html=1;" vertex="1" parent="uXdwFXX3pg9mF8V6nEQ7-256">
          <mxGeometry x="590" y="130" width="80" height="60" as="geometry" />
        </mxCell>
        <mxCell id="uXdwFXX3pg9mF8V6nEQ7-31" value="" style="group" vertex="1" connectable="0" parent="uXdwFXX3pg9mF8V6nEQ7-256">
          <mxGeometry y="110" width="995.34" height="80" as="geometry" />
        </mxCell>
        <mxCell id="uXdwFXX3pg9mF8V6nEQ7-27" value="" style="shape=umlActor;verticalLabelPosition=bottom;verticalAlign=top;html=1;outlineConnect=0;" vertex="1" parent="uXdwFXX3pg9mF8V6nEQ7-31">
          <mxGeometry x="10" y="10" width="30" height="60" as="geometry" />
        </mxCell>
        <mxCell id="uXdwFXX3pg9mF8V6nEQ7-30" value="" style="rounded=0;whiteSpace=wrap;html=1;fillColor=none;" vertex="1" parent="uXdwFXX3pg9mF8V6nEQ7-31">
          <mxGeometry width="50" height="80" as="geometry" />
        </mxCell>
        <mxCell id="uXdwFXX3pg9mF8V6nEQ7-176" style="edgeStyle=orthogonalEdgeStyle;rounded=0;orthogonalLoop=1;jettySize=auto;html=1;exitX=1;exitY=0.5;exitDx=0;exitDy=0;entryX=0;entryY=0.5;entryDx=0;entryDy=0;dashed=1;" edge="1" parent="uXdwFXX3pg9mF8V6nEQ7-256" source="uXdwFXX3pg9mF8V6nEQ7-156" target="uXdwFXX3pg9mF8V6nEQ7-172">
          <mxGeometry relative="1" as="geometry" />
        </mxCell>
        <mxCell id="uXdwFXX3pg9mF8V6nEQ7-156" value="&lt;span style=&quot;background-color: rgb(117, 169, 156);&quot;&gt;From PNG/JPG Image Input&lt;/span&gt;" style="rounded=1;whiteSpace=wrap;html=1;arcSize=9;" vertex="1" parent="uXdwFXX3pg9mF8V6nEQ7-256">
          <mxGeometry x="210" y="260" width="120" height="60" as="geometry" />
        </mxCell>
        <mxCell id="uXdwFXX3pg9mF8V6nEQ7-175" style="edgeStyle=orthogonalEdgeStyle;rounded=0;orthogonalLoop=1;jettySize=auto;html=1;exitX=1;exitY=0.5;exitDx=0;exitDy=0;dashed=1;" edge="1" parent="uXdwFXX3pg9mF8V6nEQ7-256" source="uXdwFXX3pg9mF8V6nEQ7-157">
          <mxGeometry relative="1" as="geometry">
            <mxPoint x="390" y="220.20000000000005" as="targetPoint" />
          </mxGeometry>
        </mxCell>
        <mxCell id="uXdwFXX3pg9mF8V6nEQ7-157" value="From CSV File Input" style="rounded=1;whiteSpace=wrap;html=1;arcSize=9;" vertex="1" parent="uXdwFXX3pg9mF8V6nEQ7-256">
          <mxGeometry x="210.0000000000001" y="190" width="120" height="60" as="geometry" />
        </mxCell>
        <mxCell id="uXdwFXX3pg9mF8V6nEQ7-170" style="edgeStyle=orthogonalEdgeStyle;rounded=0;orthogonalLoop=1;jettySize=auto;html=1;exitX=1;exitY=0.5;exitDx=0;exitDy=0;entryX=0;entryY=0.5;entryDx=0;entryDy=0;dashed=1;" edge="1" parent="uXdwFXX3pg9mF8V6nEQ7-256" source="uXdwFXX3pg9mF8V6nEQ7-158" target="uXdwFXX3pg9mF8V6nEQ7-166">
          <mxGeometry relative="1" as="geometry" />
        </mxCell>
        <mxCell id="uXdwFXX3pg9mF8V6nEQ7-158" value="Guided Text Input" style="rounded=1;whiteSpace=wrap;html=1;arcSize=9;" vertex="1" parent="uXdwFXX3pg9mF8V6nEQ7-256">
          <mxGeometry x="210" width="120" height="60" as="geometry" />
        </mxCell>
        <mxCell id="uXdwFXX3pg9mF8V6nEQ7-174" style="edgeStyle=orthogonalEdgeStyle;rounded=0;orthogonalLoop=1;jettySize=auto;html=1;exitX=1;exitY=0.5;exitDx=0;exitDy=0;entryX=0;entryY=0.5;entryDx=0;entryDy=0;dashed=1;" edge="1" parent="uXdwFXX3pg9mF8V6nEQ7-256" source="uXdwFXX3pg9mF8V6nEQ7-159" target="uXdwFXX3pg9mF8V6nEQ7-172">
          <mxGeometry relative="1" as="geometry" />
        </mxCell>
        <mxCell id="uXdwFXX3pg9mF8V6nEQ7-159" value="Manual Graph Building" style="rounded=1;whiteSpace=wrap;html=1;arcSize=9;" vertex="1" parent="uXdwFXX3pg9mF8V6nEQ7-256">
          <mxGeometry x="210.0000000000001" y="120" width="120" height="60" as="geometry" />
        </mxCell>
        <mxCell id="uXdwFXX3pg9mF8V6nEQ7-162" style="edgeStyle=orthogonalEdgeStyle;rounded=0;orthogonalLoop=1;jettySize=auto;html=1;exitX=1;exitY=0.5;exitDx=0;exitDy=0;entryX=0;entryY=0.5;entryDx=0;entryDy=0;" edge="1" parent="uXdwFXX3pg9mF8V6nEQ7-256" source="uXdwFXX3pg9mF8V6nEQ7-30" target="uXdwFXX3pg9mF8V6nEQ7-158">
          <mxGeometry relative="1" as="geometry" />
        </mxCell>
        <mxCell id="uXdwFXX3pg9mF8V6nEQ7-163" style="edgeStyle=orthogonalEdgeStyle;rounded=0;orthogonalLoop=1;jettySize=auto;html=1;exitX=1;exitY=0.5;exitDx=0;exitDy=0;entryX=0;entryY=0.5;entryDx=0;entryDy=0;" edge="1" parent="uXdwFXX3pg9mF8V6nEQ7-256" source="uXdwFXX3pg9mF8V6nEQ7-30" target="uXdwFXX3pg9mF8V6nEQ7-159">
          <mxGeometry relative="1" as="geometry" />
        </mxCell>
        <mxCell id="uXdwFXX3pg9mF8V6nEQ7-164" style="edgeStyle=orthogonalEdgeStyle;rounded=0;orthogonalLoop=1;jettySize=auto;html=1;exitX=1;exitY=0.5;exitDx=0;exitDy=0;" edge="1" parent="uXdwFXX3pg9mF8V6nEQ7-256" source="uXdwFXX3pg9mF8V6nEQ7-30" target="uXdwFXX3pg9mF8V6nEQ7-157">
          <mxGeometry relative="1" as="geometry" />
        </mxCell>
        <mxCell id="uXdwFXX3pg9mF8V6nEQ7-165" style="edgeStyle=orthogonalEdgeStyle;rounded=0;orthogonalLoop=1;jettySize=auto;html=1;exitX=1;exitY=0.5;exitDx=0;exitDy=0;entryX=0;entryY=0.5;entryDx=0;entryDy=0;" edge="1" parent="uXdwFXX3pg9mF8V6nEQ7-256" source="uXdwFXX3pg9mF8V6nEQ7-30" target="uXdwFXX3pg9mF8V6nEQ7-156">
          <mxGeometry relative="1" as="geometry" />
        </mxCell>
        <mxCell id="uXdwFXX3pg9mF8V6nEQ7-180" style="edgeStyle=orthogonalEdgeStyle;rounded=0;orthogonalLoop=1;jettySize=auto;html=1;exitX=1;exitY=0.5;exitDx=0;exitDy=0;entryX=0.175;entryY=0.25;entryDx=0;entryDy=0;entryPerimeter=0;" edge="1" parent="uXdwFXX3pg9mF8V6nEQ7-256" source="uXdwFXX3pg9mF8V6nEQ7-166" target="uXdwFXX3pg9mF8V6nEQ7-19">
          <mxGeometry relative="1" as="geometry">
            <mxPoint x="550" y="30" as="targetPoint" />
            <Array as="points">
              <mxPoint x="550" y="30" />
              <mxPoint x="550" y="145" />
            </Array>
          </mxGeometry>
        </mxCell>
        <mxCell id="uXdwFXX3pg9mF8V6nEQ7-166" value="Application Description" style="shape=document;whiteSpace=wrap;html=1;boundedLbl=1;" vertex="1" parent="uXdwFXX3pg9mF8V6nEQ7-256">
          <mxGeometry x="390" width="120" height="60" as="geometry" />
        </mxCell>
        <mxCell id="uXdwFXX3pg9mF8V6nEQ7-177" style="edgeStyle=orthogonalEdgeStyle;rounded=0;orthogonalLoop=1;jettySize=auto;html=1;exitX=0.5;exitY=1;exitDx=0;exitDy=0;dashed=1;" edge="1" parent="uXdwFXX3pg9mF8V6nEQ7-256" source="uXdwFXX3pg9mF8V6nEQ7-167" target="uXdwFXX3pg9mF8V6nEQ7-172">
          <mxGeometry relative="1" as="geometry" />
        </mxCell>
        <mxCell id="uXdwFXX3pg9mF8V6nEQ7-167" value="&lt;span style=&quot;background-color: rgb(117, 169, 156);&quot;&gt;DFD From Description&lt;/span&gt;" style="rounded=1;whiteSpace=wrap;html=1;arcSize=9;" vertex="1" parent="uXdwFXX3pg9mF8V6nEQ7-256">
          <mxGeometry x="390.0000000000001" y="70" width="120" height="60" as="geometry" />
        </mxCell>
        <mxCell id="uXdwFXX3pg9mF8V6nEQ7-169" value="" style="endArrow=classic;html=1;rounded=0;exitX=0.502;exitY=0.856;exitDx=0;exitDy=0;exitPerimeter=0;" edge="1" parent="uXdwFXX3pg9mF8V6nEQ7-256" source="uXdwFXX3pg9mF8V6nEQ7-166" target="uXdwFXX3pg9mF8V6nEQ7-167">
          <mxGeometry width="50" height="50" relative="1" as="geometry">
            <mxPoint x="460" y="190" as="sourcePoint" />
            <mxPoint x="510" y="140" as="targetPoint" />
            <Array as="points">
              <mxPoint x="450" y="50" />
            </Array>
          </mxGeometry>
        </mxCell>
        <mxCell id="uXdwFXX3pg9mF8V6nEQ7-172" value="DFD Graph" style="shape=document;whiteSpace=wrap;html=1;boundedLbl=1;" vertex="1" parent="uXdwFXX3pg9mF8V6nEQ7-256">
          <mxGeometry x="390" y="190" width="120" height="60" as="geometry" />
        </mxCell>
        <mxCell id="uXdwFXX3pg9mF8V6nEQ7-181" style="edgeStyle=orthogonalEdgeStyle;rounded=0;orthogonalLoop=1;jettySize=auto;html=1;exitX=1;exitY=0.5;exitDx=0;exitDy=0;entryX=0.175;entryY=0.75;entryDx=0;entryDy=0;entryPerimeter=0;" edge="1" parent="uXdwFXX3pg9mF8V6nEQ7-256" source="uXdwFXX3pg9mF8V6nEQ7-172" target="uXdwFXX3pg9mF8V6nEQ7-19">
          <mxGeometry relative="1" as="geometry" />
        </mxCell>
        <mxCell id="uXdwFXX3pg9mF8V6nEQ7-257" style="edgeStyle=orthogonalEdgeStyle;rounded=0;orthogonalLoop=1;jettySize=auto;html=1;exitX=1;exitY=0.5;exitDx=0;exitDy=0;exitPerimeter=0;entryX=0;entryY=0.5;entryDx=0;entryDy=0;" edge="1" parent="1" source="uXdwFXX3pg9mF8V6nEQ7-19" target="uXdwFXX3pg9mF8V6nEQ7-50">
          <mxGeometry relative="1" as="geometry" />
        </mxCell>
        <mxCell id="uXdwFXX3pg9mF8V6nEQ7-259" style="edgeStyle=orthogonalEdgeStyle;rounded=0;orthogonalLoop=1;jettySize=auto;html=1;exitX=1;exitY=0.5;exitDx=0;exitDy=0;exitPerimeter=0;" edge="1" parent="1" source="uXdwFXX3pg9mF8V6nEQ7-19" target="uXdwFXX3pg9mF8V6nEQ7-184">
          <mxGeometry relative="1" as="geometry" />
        </mxCell>
        <mxCell id="uXdwFXX3pg9mF8V6nEQ7-260" style="edgeStyle=orthogonalEdgeStyle;rounded=0;orthogonalLoop=1;jettySize=auto;html=1;exitX=1;exitY=0.5;exitDx=0;exitDy=0;exitPerimeter=0;entryX=0;entryY=0.5;entryDx=0;entryDy=0;" edge="1" parent="1" source="uXdwFXX3pg9mF8V6nEQ7-19" target="uXdwFXX3pg9mF8V6nEQ7-214">
          <mxGeometry relative="1" as="geometry" />
        </mxCell>
        <mxCell id="uXdwFXX3pg9mF8V6nEQ7-261" value="" style="group" vertex="1" connectable="0" parent="1">
          <mxGeometry x="1130" y="451.25" width="950" height="147.5" as="geometry" />
        </mxCell>
        <mxCell id="uXdwFXX3pg9mF8V6nEQ7-241" value="" style="group" vertex="1" connectable="0" parent="uXdwFXX3pg9mF8V6nEQ7-261">
          <mxGeometry width="540" height="147.5" as="geometry" />
        </mxCell>
        <mxCell id="uXdwFXX3pg9mF8V6nEQ7-233" value="Impact Assessment" style="rounded=1;whiteSpace=wrap;html=1;fillColor=none;labelPosition=center;verticalLabelPosition=top;align=center;verticalAlign=bottom;" vertex="1" parent="uXdwFXX3pg9mF8V6nEQ7-241">
          <mxGeometry width="540" height="147.5" as="geometry" />
        </mxCell>
        <mxCell id="uXdwFXX3pg9mF8V6nEQ7-238" style="edgeStyle=orthogonalEdgeStyle;rounded=0;orthogonalLoop=1;jettySize=auto;html=1;exitX=1;exitY=0.5;exitDx=0;exitDy=0;" edge="1" parent="uXdwFXX3pg9mF8V6nEQ7-241" source="uXdwFXX3pg9mF8V6nEQ7-234" target="uXdwFXX3pg9mF8V6nEQ7-235">
          <mxGeometry relative="1" as="geometry" />
        </mxCell>
        <mxCell id="uXdwFXX3pg9mF8V6nEQ7-234" value="Threat Selection" style="rounded=1;whiteSpace=wrap;html=1;arcSize=9;" vertex="1" parent="uXdwFXX3pg9mF8V6nEQ7-241">
          <mxGeometry x="25.170000000000073" y="43.75" width="130.34" height="60" as="geometry" />
        </mxCell>
        <mxCell id="uXdwFXX3pg9mF8V6nEQ7-239" style="edgeStyle=orthogonalEdgeStyle;rounded=0;orthogonalLoop=1;jettySize=auto;html=1;exitX=1;exitY=0.5;exitDx=0;exitDy=0;" edge="1" parent="uXdwFXX3pg9mF8V6nEQ7-241" source="uXdwFXX3pg9mF8V6nEQ7-235" target="uXdwFXX3pg9mF8V6nEQ7-236">
          <mxGeometry relative="1" as="geometry" />
        </mxCell>
        <mxCell id="uXdwFXX3pg9mF8V6nEQ7-235" value="&lt;span style=&quot;background-color: rgb(117, 169, 156);&quot;&gt;Impact Assessment Generation&lt;/span&gt; And Modification" style="rounded=1;whiteSpace=wrap;html=1;arcSize=9;" vertex="1" parent="uXdwFXX3pg9mF8V6nEQ7-241">
          <mxGeometry x="204.83000000000015" y="43.75" width="130.34" height="60" as="geometry" />
        </mxCell>
        <mxCell id="uXdwFXX3pg9mF8V6nEQ7-236" value="&lt;span style=&quot;background-color: rgb(117, 169, 156);&quot;&gt;Control Measures Generation&lt;/span&gt;" style="rounded=1;whiteSpace=wrap;html=1;arcSize=9;" vertex="1" parent="uXdwFXX3pg9mF8V6nEQ7-241">
          <mxGeometry x="395.1700000000001" y="43.75" width="130.34" height="60" as="geometry" />
        </mxCell>
        <mxCell id="uXdwFXX3pg9mF8V6nEQ7-237" style="edgeStyle=orthogonalEdgeStyle;rounded=0;orthogonalLoop=1;jettySize=auto;html=1;exitX=1;exitY=0.5;exitDx=0;exitDy=0;entryX=0.5;entryY=1;entryDx=0;entryDy=0;" edge="1" parent="uXdwFXX3pg9mF8V6nEQ7-241" source="uXdwFXX3pg9mF8V6nEQ7-233" target="uXdwFXX3pg9mF8V6nEQ7-233">
          <mxGeometry relative="1" as="geometry" />
        </mxCell>
        <mxCell id="uXdwFXX3pg9mF8V6nEQ7-240" value="Repeat For All Threats" style="edgeLabel;html=1;align=center;verticalAlign=middle;resizable=0;points=[];" vertex="1" connectable="0" parent="uXdwFXX3pg9mF8V6nEQ7-237">
          <mxGeometry x="-0.836" y="-2" relative="1" as="geometry">
            <mxPoint y="35" as="offset" />
          </mxGeometry>
        </mxCell>
        <mxCell id="uXdwFXX3pg9mF8V6nEQ7-242" value="Final Report" style="shape=document;whiteSpace=wrap;html=1;boundedLbl=1;" vertex="1" parent="uXdwFXX3pg9mF8V6nEQ7-261">
          <mxGeometry x="830" y="43.75" width="120" height="60" as="geometry" />
        </mxCell>
        <mxCell id="uXdwFXX3pg9mF8V6nEQ7-254" style="edgeStyle=orthogonalEdgeStyle;rounded=0;orthogonalLoop=1;jettySize=auto;html=1;exitX=1;exitY=0.5;exitDx=0;exitDy=0;dashed=1;" edge="1" parent="uXdwFXX3pg9mF8V6nEQ7-261" source="uXdwFXX3pg9mF8V6nEQ7-244" target="uXdwFXX3pg9mF8V6nEQ7-242">
          <mxGeometry relative="1" as="geometry" />
        </mxCell>
        <mxCell id="uXdwFXX3pg9mF8V6nEQ7-244" value="Adding General Information" style="rounded=1;whiteSpace=wrap;html=1;arcSize=9;" vertex="1" parent="uXdwFXX3pg9mF8V6nEQ7-261">
          <mxGeometry x="620" y="43.75" width="130.34" height="60" as="geometry" />
        </mxCell>
        <mxCell id="uXdwFXX3pg9mF8V6nEQ7-253" style="edgeStyle=orthogonalEdgeStyle;rounded=0;orthogonalLoop=1;jettySize=auto;html=1;exitX=1;exitY=0.5;exitDx=0;exitDy=0;entryX=0;entryY=0.5;entryDx=0;entryDy=0;" edge="1" parent="uXdwFXX3pg9mF8V6nEQ7-261" source="uXdwFXX3pg9mF8V6nEQ7-233" target="uXdwFXX3pg9mF8V6nEQ7-244">
          <mxGeometry relative="1" as="geometry" />
        </mxCell>
        <mxCell id="uXdwFXX3pg9mF8V6nEQ7-262" style="edgeStyle=orthogonalEdgeStyle;rounded=0;orthogonalLoop=1;jettySize=auto;html=1;exitX=1;exitY=0.5;exitDx=0;exitDy=0;entryX=0.175;entryY=0.25;entryDx=0;entryDy=0;entryPerimeter=0;" edge="1" parent="1" source="uXdwFXX3pg9mF8V6nEQ7-210" target="uXdwFXX3pg9mF8V6nEQ7-154">
          <mxGeometry relative="1" as="geometry">
            <Array as="points">
              <mxPoint x="800" y="240" />
              <mxPoint x="800" y="510" />
            </Array>
          </mxGeometry>
        </mxCell>
        <mxCell id="uXdwFXX3pg9mF8V6nEQ7-263" style="edgeStyle=orthogonalEdgeStyle;rounded=0;orthogonalLoop=1;jettySize=auto;html=1;exitX=1;exitY=0.5;exitDx=0;exitDy=0;entryX=0.25;entryY=0.5;entryDx=0;entryDy=0;entryPerimeter=0;" edge="1" parent="1" source="uXdwFXX3pg9mF8V6nEQ7-212" target="uXdwFXX3pg9mF8V6nEQ7-154">
          <mxGeometry relative="1" as="geometry">
            <Array as="points">
              <mxPoint x="800" y="470" />
              <mxPoint x="800" y="525" />
            </Array>
          </mxGeometry>
        </mxCell>
        <mxCell id="uXdwFXX3pg9mF8V6nEQ7-264" style="edgeStyle=orthogonalEdgeStyle;rounded=0;orthogonalLoop=1;jettySize=auto;html=1;exitX=1;exitY=0.5;exitDx=0;exitDy=0;entryX=0.175;entryY=0.75;entryDx=0;entryDy=0;entryPerimeter=0;" edge="1" parent="1" source="uXdwFXX3pg9mF8V6nEQ7-230" target="uXdwFXX3pg9mF8V6nEQ7-154">
          <mxGeometry relative="1" as="geometry">
            <Array as="points">
              <mxPoint x="800" y="770" />
              <mxPoint x="800" y="540" />
            </Array>
          </mxGeometry>
        </mxCell>
        <mxCell id="uXdwFXX3pg9mF8V6nEQ7-270" value="" style="sketch=0;outlineConnect=0;fontColor=#232F3E;gradientColor=none;fillColor=#000000;strokeColor=none;dashed=0;verticalLabelPosition=bottom;verticalAlign=top;align=center;html=1;fontSize=12;fontStyle=0;aspect=fixed;pointerEvents=1;shape=mxgraph.aws4.gear;" vertex="1" parent="1">
          <mxGeometry x="-990" y="650" width="78" height="78" as="geometry" />
        </mxCell>
        <mxCell id="uXdwFXX3pg9mF8V6nEQ7-271" style="edgeStyle=orthogonalEdgeStyle;rounded=0;orthogonalLoop=1;jettySize=auto;html=1;exitX=0.5;exitY=1;exitDx=0;exitDy=0;" edge="1" parent="1" source="uXdwFXX3pg9mF8V6nEQ7-30" target="uXdwFXX3pg9mF8V6nEQ7-270">
          <mxGeometry relative="1" as="geometry" />
        </mxCell>
        <mxCell id="uXdwFXX3pg9mF8V6nEQ7-272" value="Insert LLM API Keys" style="text;html=1;align=center;verticalAlign=middle;resizable=0;points=[];autosize=1;strokeColor=none;fillColor=none;" vertex="1" parent="1">
          <mxGeometry x="-1015" y="728" width="130" height="30" as="geometry" />
        </mxCell>
        <mxCell id="uXdwFXX3pg9mF8V6nEQ7-278" value="" style="group" vertex="1" connectable="0" parent="1">
          <mxGeometry x="2110" y="157" width="194.65999999999985" height="626" as="geometry" />
        </mxCell>
        <mxCell id="uXdwFXX3pg9mF8V6nEQ7-121" value="&lt;b&gt;&lt;font style=&quot;font-size: 22px;&quot;&gt;Legend&lt;/font&gt;&lt;/b&gt;" style="rounded=1;whiteSpace=wrap;html=1;fillColor=none;dashed=1;dashPattern=1 4;verticalAlign=bottom;align=center;labelPosition=center;verticalLabelPosition=top;movable=1;resizable=1;rotatable=1;deletable=1;editable=1;locked=0;connectable=1;strokeWidth=2;" vertex="1" parent="uXdwFXX3pg9mF8V6nEQ7-278">
          <mxGeometry width="194.66" height="626" as="geometry" />
        </mxCell>
        <mxCell id="uXdwFXX3pg9mF8V6nEQ7-146" value="" style="endArrow=classic;html=1;rounded=0;dashed=1;labelPosition=center;verticalLabelPosition=top;align=right;verticalAlign=top;" edge="1" parent="uXdwFXX3pg9mF8V6nEQ7-278">
          <mxGeometry width="50" height="50" relative="1" as="geometry">
            <mxPoint x="37.6700000000003" y="404.05999999999995" as="sourcePoint" />
            <mxPoint x="157.67000000000007" y="404.05999999999995" as="targetPoint" />
          </mxGeometry>
        </mxCell>
        <mxCell id="uXdwFXX3pg9mF8V6nEQ7-151" value="&lt;font style=&quot;font-size: 16px;&quot;&gt;Process Output&lt;/font&gt;" style="text;html=1;align=center;verticalAlign=middle;resizable=0;points=[];autosize=1;strokeColor=none;fillColor=none;" vertex="1" parent="uXdwFXX3pg9mF8V6nEQ7-278">
          <mxGeometry x="32.50000000000023" y="373" width="130" height="30" as="geometry" />
        </mxCell>
        <mxCell id="uXdwFXX3pg9mF8V6nEQ7-152" value="&lt;span style=&quot;background-color: rgb(117, 169, 156); font-size: 16px;&quot;&gt;LLM - Powered&lt;/span&gt;" style="text;html=1;align=center;verticalAlign=middle;resizable=0;points=[];autosize=1;strokeColor=none;fillColor=none;fontSize=16;" vertex="1" parent="uXdwFXX3pg9mF8V6nEQ7-278">
          <mxGeometry x="32.6700000000003" y="423" width="130" height="30" as="geometry" />
        </mxCell>
        <mxCell id="uXdwFXX3pg9mF8V6nEQ7-245" value="Process" style="rounded=1;whiteSpace=wrap;html=1;arcSize=9;" vertex="1" parent="uXdwFXX3pg9mF8V6nEQ7-278">
          <mxGeometry x="32.330000000000155" y="41.25" width="130.34" height="60" as="geometry" />
        </mxCell>
        <mxCell id="uXdwFXX3pg9mF8V6nEQ7-247" value="Output" style="shape=document;whiteSpace=wrap;html=1;boundedLbl=1;" vertex="1" parent="uXdwFXX3pg9mF8V6nEQ7-278">
          <mxGeometry x="37.50000000000023" y="131.25" width="120" height="60" as="geometry" />
        </mxCell>
        <mxCell id="uXdwFXX3pg9mF8V6nEQ7-251" value="User" style="text;html=1;align=center;verticalAlign=middle;resizable=0;points=[];autosize=1;strokeColor=none;fillColor=none;" vertex="1" parent="uXdwFXX3pg9mF8V6nEQ7-278">
          <mxGeometry x="72.33000000000038" y="563" width="50" height="30" as="geometry" />
        </mxCell>
        <mxCell id="uXdwFXX3pg9mF8V6nEQ7-275" value="&lt;span style=&quot;font-size: 11px;&quot;&gt;Conditional&lt;/span&gt;&lt;div&gt;&lt;span style=&quot;font-size: 11px;&quot;&gt;&quot;At Least One&quot;&lt;/span&gt;&lt;/div&gt;&lt;div&gt;&lt;span style=&quot;font-size: 11px;&quot;&gt;Check&lt;/span&gt;&lt;/div&gt;" style="shape=xor;whiteSpace=wrap;html=1;align=center;" vertex="1" parent="uXdwFXX3pg9mF8V6nEQ7-278">
          <mxGeometry x="57.5" y="208" width="80" height="60" as="geometry" />
        </mxCell>
        <mxCell id="uXdwFXX3pg9mF8V6nEQ7-276" value="Conditional&lt;div&gt;Switch&lt;/div&gt;" style="rhombus;whiteSpace=wrap;html=1;" vertex="1" parent="uXdwFXX3pg9mF8V6nEQ7-278">
          <mxGeometry x="57.5" y="283" width="80" height="80" as="geometry" />
        </mxCell>
        <mxCell id="uXdwFXX3pg9mF8V6nEQ7-277" value="" style="group" vertex="1" connectable="0" parent="uXdwFXX3pg9mF8V6nEQ7-278">
          <mxGeometry x="72.32999999999993" y="473" width="50" height="80" as="geometry" />
        </mxCell>
        <mxCell id="uXdwFXX3pg9mF8V6nEQ7-108" value="" style="shape=umlActor;verticalLabelPosition=bottom;verticalAlign=top;html=1;outlineConnect=0;" vertex="1" parent="uXdwFXX3pg9mF8V6nEQ7-277">
          <mxGeometry x="10" y="10" width="30" height="60" as="geometry" />
        </mxCell>
        <mxCell id="uXdwFXX3pg9mF8V6nEQ7-109" value="" style="rounded=0;whiteSpace=wrap;html=1;fillColor=none;" vertex="1" parent="uXdwFXX3pg9mF8V6nEQ7-277">
          <mxGeometry width="50" height="80" as="geometry" />
        </mxCell>
        <mxCell id="uXdwFXX3pg9mF8V6nEQ7-295" style="edgeStyle=orthogonalEdgeStyle;rounded=0;orthogonalLoop=1;jettySize=auto;html=1;exitX=1;exitY=0.5;exitDx=0;exitDy=0;entryX=0;entryY=0.5;entryDx=0;entryDy=0;" edge="1" parent="1" source="uXdwFXX3pg9mF8V6nEQ7-293" target="uXdwFXX3pg9mF8V6nEQ7-233">
          <mxGeometry relative="1" as="geometry" />
        </mxCell>
        <mxCell id="uXdwFXX3pg9mF8V6nEQ7-293" value="Threat List Import" style="rounded=1;whiteSpace=wrap;html=1;arcSize=9;" vertex="1" parent="1">
          <mxGeometry x="959.6599999999999" y="495" width="130.34" height="60" as="geometry" />
        </mxCell>
      </root>
    </mxGraphModel>
  </diagram>
</mxfile>
